<svg data-v-423bf9ae="" xmlns="http://www.w3.org/2000/svg" viewBox="0 0 286 90" class="iconLeft"><!----><!----><!----><g data-v-423bf9ae="" id="7cd84184-eca0-417a-8a30-ea7bad7786ae" fill="black" transform="matrix(4.735595867300924,0,0,4.735595867300924,114.8542119391237,9.411997275705517)"><path d="M8.81 5.14L8.99 5.19L8.99 5.19Q8.76 5.73 7.67 6.50L7.67 6.50L7.67 6.50Q6.58 7.28 5.88 7.43L5.88 7.43L5.42 9.17L5.42 9.17Q5.38 9.35 5.03 10.02L5.03 10.02L5.03 10.02Q4.31 11.40 3.78 12.07L3.78 12.07L3.78 12.07Q2.76 13.38 1.41 13.85L1.41 13.85L1.41 13.85Q1.53 13.72 2.24 12.47L2.24 12.47L2.24 12.47Q3.01 11.13 3.09 10.79L3.09 10.79L4.06 7.21L4.06 7.21Q3.75 7.00 3.33 7.00L3.33 7.00L3.33 7.00Q2.88 7.00 1.81 7.52L1.81 7.52L1.64 7.46L1.64 7.46Q1.83 7.00 2.86 6.26L2.86 6.26L2.86 6.26Q3.75 5.61 4.51 5.26L4.51 5.26L4.89 3.84L4.89 3.84Q4.90 3.78 4.67 3.48L4.67 3.48L4.67 3.48Q4.44 3.18 4.40 3.18L4.40 3.18L4.40 3.18Q4.37 3.18 4.19 3.26L4.19 3.26L4.19 3.26Q4.02 3.35 3.86 3.32L3.86 3.32L3.86 3.32Q4.06 2.98 5.05 2.13L5.05 2.13L5.05 2.13Q6.16 1.18 6.58 1.18L6.58 1.18L6.58 1.18Q6.66 1.18 7.27 2.00L7.27 2.00L6.52 4.76L6.52 4.76Q6.48 4.93 6.48 5.05L6.48 5.05L6.48 5.05Q6.48 5.40 6.80 5.50L6.80 5.50L6.80 5.50Q6.97 5.54 7.46 5.54L7.46 5.54L7.46 5.54Q7.87 5.54 7.98 5.52L7.98 5.52L7.98 5.52Q8.09 5.49 8.81 5.14L8.81 5.14ZM18.02 7.03L18.02 7.03L18.02 7.03Q17.70 8.20 15.97 9.55L15.97 9.55L15.97 9.55Q14.28 10.78 12.59 12.01L12.59 12.01L12.59 12.01Q12.39 12.17 11.86 12.26L11.86 12.26L11.86 12.26Q11.40 12.36 11.03 12.36L11.03 12.36L11.03 12.36Q10.19 12.36 9.53 11.73L9.53 11.73L9.53 11.73Q8.88 11.10 8.88 10.23L8.88 10.23L8.88 10.23Q8.88 9.95 8.96 9.67L8.96 9.67L8.96 9.67Q9.34 8.26 10.93 6.47L10.93 6.47L10.93 6.47Q12.60 4.61 14.21 3.89L14.21 3.89L14.21 3.89Q14.22 3.92 14.17 4.06L14.17 4.06L14.17 4.06Q14.13 4.17 14.20 4.17L14.20 4.17L14.20 4.17Q14.34 4.17 14.92 4.03L14.92 4.03L14.92 4.03Q15.50 3.89 15.92 3.89L15.92 3.89L15.92 3.89Q16.95 3.89 17.57 4.59L17.57 4.59L17.57 4.59Q18.13 5.24 18.13 6.22L18.13 6.22L18.13 6.22Q18.13 6.62 18.02 7.03ZM15.25 9.32L15.25 9.32L15.53 8.29L15.53 8.29Q15.55 8.19 15.55 8.08L15.55 8.08L15.55 8.08Q15.55 7.55 15.07 6.85L15.07 6.85L15.07 6.85Q14.59 6.16 14.20 6.09L14.20 6.09L14.20 6.09Q13.65 5.99 13.45 5.99L13.45 5.99L13.45 5.99Q12.57 5.99 12.17 6.45L12.17 6.45L12.17 6.45Q11.87 6.79 11.62 7.76L11.62 7.76L11.62 7.76Q11.55 8.01 11.55 8.26L11.55 8.26L11.55 8.26Q11.55 9.07 12.14 9.66L12.14 9.66L12.14 9.66Q12.74 10.25 13.50 10.25L13.50 10.25L13.50 10.25Q13.97 10.25 14.22 10.12L14.22 10.12L14.22 10.12Q14.36 10.04 15.25 9.32ZM25.98 7.17L25.98 7.17L25.98 7.17Q25.93 7.49 25.86 7.83L25.86 7.83L25.86 7.83Q25.77 8.22 25.61 8.43L25.61 8.43L25.61 8.43Q24.36 9.88 23.06 10.98L23.06 10.98L23.06 10.98Q21.17 12.56 19.96 12.56L19.96 12.56L19.96 12.56Q19.17 12.56 18.77 11.94L18.77 11.94L18.77 11.94Q18.47 11.44 18.47 10.65L18.47 10.65L18.47 10.65Q18.47 10.19 18.56 9.80L18.56 9.80L18.56 9.80Q18.90 8.58 20.37 7.06L20.37 7.06L20.37 7.06Q21.84 5.54 23.17 5.00L23.17 5.00L23.17 5.00Q23.23 5.19 23.24 5.21L23.24 5.21L23.24 5.21Q23.32 5.36 23.46 5.36L23.46 5.36L24.44 5.36L24.44 5.36Q24.50 5.28 24.53 5.10L24.53 5.10L24.53 5.10Q24.56 4.96 24.57 4.83L24.57 4.83L24.81 3.93L24.81 3.93Q24.84 3.82 24.50 3.53L24.50 3.53L24.50 3.53Q24.12 3.19 24.09 3.14L24.09 3.14L24.09 3.14Q23.93 3.25 23.74 3.35L23.74 3.35L23.74 3.35Q23.52 3.46 23.28 3.46L23.28 3.46L23.28 3.46Q23.39 3.02 24.68 2.10L24.68 2.10L24.68 2.10Q25.91 1.20 26.25 1.20L26.25 1.20L26.25 1.20Q26.32 1.20 26.76 1.66L26.76 1.66L26.76 1.66Q27.20 2.11 27.17 2.20L27.17 2.20L26.85 3.42L26.85 3.42Q26.84 3.44 26.83 3.60L26.83 3.60L26.83 3.60Q26.82 3.77 26.82 3.81L26.82 3.81L26.32 5.68L26.32 5.68Q26.32 5.68 26.19 6.31L26.19 6.31L26.19 6.31Q26.05 6.94 25.98 7.17ZM23.69 8.65L23.69 8.65L24.25 6.29L24.25 6.29Q24.01 6.44 23.39 6.78L23.39 6.78L23.39 6.78Q22.58 7.22 22.41 7.22L22.41 7.22L21.27 7.22L21.27 7.22Q21.18 7.32 20.90 8.19L20.90 8.19L20.90 8.19Q20.79 8.58 20.79 8.99L20.79 8.99L20.79 8.99Q20.79 9.77 21.17 10.23L21.17 10.23L21.17 10.23Q21.63 10.78 22.51 10.70L22.51 10.70L22.51 10.70Q23.14 10.21 23.38 9.69L23.38 9.69L23.38 9.69Q23.46 9.51 23.69 8.65ZM35.90 7.03L35.90 7.03L35.90 7.03Q35.57 8.20 33.85 9.55L33.85 9.55L33.85 9.55Q32.16 10.78 30.46 12.01L30.46 12.01L30.46 12.01Q30.27 12.17 29.74 12.26L29.74 12.26L29.74 12.26Q29.27 12.36 28.91 12.36L28.91 12.36L28.91 12.36Q28.07 12.36 27.41 11.73L27.41 11.73L27.41 11.73Q26.75 11.10 26.75 10.23L26.75 10.23L26.75 10.23Q26.75 9.95 26.84 9.67L26.84 9.67L26.84 9.67Q27.22 8.26 28.81 6.47L28.81 6.47L28.81 6.47Q30.48 4.61 32.09 3.89L32.09 3.89L32.09 3.89Q32.10 3.92 32.05 4.06L32.05 4.06L32.05 4.06Q32.00 4.17 32.07 4.17L32.07 4.17L32.07 4.17Q32.21 4.17 32.80 4.03L32.80 4.03L32.80 4.03Q33.38 3.89 33.80 3.89L33.80 3.89L33.80 3.89Q34.83 3.89 35.45 4.59L35.45 4.59L35.45 4.59Q36.01 5.24 36.01 6.22L36.01 6.22L36.01 6.22Q36.01 6.62 35.90 7.03ZM33.12 9.32L33.12 9.32L33.40 8.29L33.40 8.29Q33.43 8.19 33.43 8.08L33.43 8.08L33.43 8.08Q33.43 7.55 32.95 6.85L32.95 6.85L32.95 6.85Q32.47 6.16 32.07 6.09L32.07 6.09L32.07 6.09Q31.53 5.99 31.33 5.99L31.33 5.99L31.33 5.99Q30.45 5.99 30.04 6.45L30.04 6.45L30.04 6.45Q29.75 6.79 29.50 7.76L29.50 7.76L29.50 7.76Q29.43 8.01 29.43 8.26L29.43 8.26L29.43 8.26Q29.43 9.07 30.02 9.66L30.02 9.66L30.02 9.66Q30.62 10.25 31.37 10.25L31.37 10.25L31.37 10.25Q31.85 10.25 32.10 10.12L32.10 10.12L32.10 10.12Q32.24 10.04 33.12 9.32Z"></path></g><!----><g data-v-423bf9ae="" id="29bd86e9-b57a-4a4f-ae65-c62eb4bc5fd8" transform="matrix(2.3397457861347934,0,0,2.3397457861347934,-6.6174711587389226,-15.359848086893855)" stroke="none" fill="black"><path d="M8.625 32.047c3.167 0 5.743-2.58 5.743-5.752 0-.098-.003-.181-.021-.28a.815.815 0 1 0-1.608.28 4.124 4.124 0 0 1-4.114 4.123 4.128 4.128 0 0 1-4.122-4.123 4.122 4.122 0 0 1 4.122-4.113c.354 0 .694.047 1.011.139a.815.815 0 1 0 .455-1.564 5.25 5.25 0 0 0-1.466-.204 5.752 5.752 0 0 0-5.75 5.743 5.757 5.757 0 0 0 5.75 5.751zM8.623 33.956c-3.169 0-5.748 2.579-5.748 5.748s2.579 5.748 5.748 5.748c3.17 0 5.749-2.579 5.749-5.748s-2.58-5.748-5.749-5.748zm0 9.867a4.125 4.125 0 0 1-4.119-4.119 4.124 4.124 0 0 1 4.119-4.119 4.124 4.124 0 0 1 4.12 4.119 4.125 4.125 0 0 1-4.12 4.119zM17.333 11.422h28.508a.408.408 0 1 0 0-.815H17.333a.408.408 0 0 0 0 .815zM17.333 13.051H31.18a.407.407 0 0 0 0-.814H17.333a.407.407 0 0 0 0 .814zM45.842 23.641H17.333a.407.407 0 0 0 0 .815h28.508a.408.408 0 0 0 .001-.815zM17.333 26.084H31.18a.407.407 0 0 0 0-.814H17.333a.407.407 0 0 0 0 .814zM45.842 37.488H17.333a.407.407 0 0 0 0 .814h28.508a.407.407 0 1 0 .001-.814zM31.181 39.117H17.333a.407.407 0 0 0 0 .814H31.18a.408.408 0 0 0 .001-.814zM17.333 14.681H31.18a.408.408 0 0 0 0-.815H17.333a.407.407 0 0 0 0 .815zM17.333 27.714H31.18a.408.408 0 0 0 0-.815H17.333a.408.408 0 0 0 0 .815zM31.181 40.746H17.333a.408.408 0 0 0 0 .815H31.18a.408.408 0 0 0 .001-.815zM15.303 7.198a.707.707 0 0 0-.998-.011l-5.729 5.729-1.724-1.724a.644.644 0 0 0-.911.019l-.221.222a.646.646 0 0 0-.018.911l2.429 2.429a.645.645 0 0 0 .911-.018l.083-.083.14-.14 6.194-6.194a.706.706 0 0 0-.011-.997l-.145-.143z"></path><path d="M15.303 20.231a.707.707 0 0 0-.998-.011l-5.729 5.729-1.724-1.724a.645.645 0 0 0-.911.019l-.221.222a.646.646 0 0 0-.018.911l2.429 2.429a.644.644 0 0 0 .911-.019l.083-.082.14-.141 6.194-6.194a.707.707 0 0 0-.011-.998l-.145-.141zM8.625 19.014c3.167 0 5.743-2.581 5.743-5.752a1.49 1.49 0 0 0-.021-.281.816.816 0 1 0-1.608.281 4.123 4.123 0 0 1-4.114 4.123 4.127 4.127 0 0 1-4.122-4.123 4.122 4.122 0 0 1 4.122-4.113c.354 0 .694.048 1.011.138a.815.815 0 1 0 .455-1.564 5.25 5.25 0 0 0-1.466-.203 5.752 5.752 0 0 0-5.75 5.743 5.757 5.757 0 0 0 5.75 5.751z"></path></g><!----></svg>